<svg xmlns="http://www.w3.org/2000/svg" width="1920" height="1080" viewBox="0 0 1920 1080"><defs><linearGradient id="base" x1="0" y1="0" x2="1" y2="1"><stop offset="0" stop-color="#4f46e5" stop-opacity="1" /><stop offset="1" stop-color="#3731a0" stop-opacity="1" /></linearGradient><filter id="lift" filterUnits="userSpaceOnUse" x="-1920" y="-1080" width="5760" height="3240" color-interpolation-filters="sRGB"><feDropShadow dx="0" dy="21.6" stdDeviation="32.4" flood-color="#201c5c" flood-opacity="0.35" /></filter></defs><rect width="1920" height="1080" fill="url(#base)" /><g fill="none" stroke-linecap="round" filter="url(#lift)"><path d="M-192 1015.2C-102.4 979.2 179.2 799.2 345.6 799.2C512 799.2 640 1051.2 806.4 1015.2C972.8 979.2 1184 669.6 1344 583.2C1504 496.8 1632 550.8 1766.4 496.8C1900.8 442.8 2086.4 298.8 2150.4 259.2" stroke="#6d69eb" stroke-width="259.2" /><path d="M-192 842.4C-102.4 806.4 179.2 626.4 345.6 626.4C512 626.4 640 878.4 806.4 842.4C972.8 806.4 1184 496.8 1344 410.4C1504 324 1632 378 1766.4 324C1900.8 270 2086.4 126 2150.4 86.4" stroke="#9193f3" stroke-width="194.4" /><path d="M-192 669.6C-102.4 633.6 179.2 453.6 345.6 453.6C512 453.6 640 705.6 806.4 669.6C972.8 633.6 1184 324 1344 237.6C1504 151.2 1632 205.2 1766.4 151.2C1900.8 97.2 2086.4 -46.8 2150.4 -86.4" stroke="#c7d2fe" stroke-width="129.6" /></g></svg>
